# xmcd
#
# Track frame offsets:
# 150
# 13321
# 26050
# 40515
# 54562
# 66937
# 76937
# 90966
# 100390
# 112949
# 126898
# 139929
# 154948
# 168815
# 182095
#
# Disc length: 2633 seconds
#
# Revision: 0
# Processed by: cddbd v1.5.2PL0 Copyright (c) Steve Scherf et al.
# Submitted via: Axialis_AX_CDPlayer 2.6
#
DISCID=bd0a470f
DTITLE=Swing collection - AAVV - EVERGREEN: Le melodie Immortali
DYEAR=1900
DGENRE=
TTITLE0=Gene Kelly - Singin' in the Rain
TTITLE1=Frank Sinatra - Soutth of the Border
TTITLE2=Sarah Vaughan - Summertime
TTITLE3=Dean Martin - That's Amore
TTITLE4=Judy Garland - Over the Rainbow
TTITLE5=Fred Astaire - Puttin' on the Ritz
TTITLE6=Ginger Rogers - Cheek to Cheek
TTITLE7=Doris Day - Que serà serà
TTITLE8=Bing Crosby - Stardust
TTITLE9=Ella Fitzgerald - Night and Day
TTITLE10=Nat King Cole - Smile
TTITLE11=Lena Horne - Stormy Weather
TTITLE12=Harry Belafonte - Banana Boat (Day-O)
TTITLE13=Al Hibbler - Unchained Melody
TTITLE14=Jimmy Dorsey - Amapola
EXTD=
EXTT0=
EXTT1=
EXTT2=
EXTT3=
EXTT4=
EXTT5=
EXTT6=
EXTT7=
EXTT8=
EXTT9=
EXTT10=
EXTT11=
EXTT12=
EXTT13=
EXTT14=
PLAYORDER=
